:FULLY-SPECIFIED
:FORCE-ALL-JOINTS-BE-3DOF
:DEGREES
1
root -2.95645 16.8291 -36.2757 3.79203 -0.409345 -2.77144
lfemur -18.1857 -3.85478 -7.37129
ltibia 37.6337 0 0
lfoot -17.8071 6.78532 0
ltoes -26.1578 0 0
rfemur -19.1521 0.15077 14.7318
rtibia 40.3652 0 0
rfoot -23.1652 -2.86285 0
rtoes -21.0274 0 0
lowerback 7.02591 2.55716 -1.97249
upperback -3.14202 3.31583 1.27229
thorax -7.43554 1.75645 1.99661
lowerneck -4.68188 -4.04088 -6.84108
upperneck 4.69893 -5.30737 6.47589
head 2.76948 -2.5844 3.14763
lclavicle 1.91563e-15 -9.24349e-15 0
lhumerus -27.0689 -5.33108 89.6453
lradius 25.7364 0 0
lwrist -30.6252 0 0
lhand -28.8405 29.9909 0
lfingers 7.12502 0 0
lthumb -2.19771 59.9594 0
rclavicle 1.91563e-15 -9.24349e-15 0
rhumerus -32.8355 4.71181 -81.727
rradius 32.9783 0 0
rwrist 3.84135 0 0
rhand -24.1523 -25.0894 0
rfingers 7.12502 0 0
rthumb 2.33029 -55.0564 0
2
root -2.95692 16.8255 -36.2785 3.69053 -0.439573 -2.74598
lfemur -18.0831 -3.73995 -7.40064
ltibia 37.6125 0 0
lfoot -17.7852 6.72429 0
ltoes -25.8722 0 0
rfemur -19.1001 0.0824311 14.7113
rtibia 40.4064 0 0
rfoot -23.1465 -2.73577 0
rtoes -20.6871 0 0
lowerback 7.21383 2.56107 -1.99087
upperback -3.10685 3.3147 1.26725
thorax -7.50739 1.75646 1.99567
lowerneck -4.68624 -4.0373 -6.84329
upperneck 4.65162 -5.3013 6.49074
head 2.75457 -2.58094 3.15328
lclavicle 1.49034e-15 -8.59074e-15 0
lhumerus -27.0419 -5.32278 89.6545
lradius 25.7242 0 0
lwrist -30.6333 0 0
lhand -28.8448 29.9823 0
lfingers 7.12502 0 0
lthumb -2.20189 59.9508 0
rclavicle 1.49034e-15 -8.59074e-15 0
rhumerus -32.8268 4.66197 -81.7124
rradius 32.9102 0 0
rwrist 3.83814 0 0
rhand -24.1462 -25.0897 0
rfingers 7.12502 0 0
rthumb 2.33617 -55.0569 0
3
root -2.95739 16.8218 -36.2813 3.5994 -0.467208 -2.72339
lfemur -17.9884 -3.64354 -7.42575
ltibia 37.5883 0 0
lfoot -17.7625 6.67404 0
ltoes -25.6276 0 0
rfemur -19.0513 0.0251362 14.6935
rtibia 40.4385 0 0
rfoot -23.1278 -2.62443 0
rtoes -20.3905 0 0
lowerback 7.38298 2.565 -2.00764
upperback -3.07475 3.31421 1.26274
thorax -7.57164 1.75674 1.99492
lowerneck -4.69156 -4.03422 -6.8455
upperneck 4.60783 -5.2959 6.50456
head 2.74104 -2.57783 3.15854
lclavicle 1.10717e-15 -8.00418e-15 0
lhumerus -27.0178 -5.31614 89.6628
lradius 25.7138 0 0
lwrist -30.6409 0 0
lhand -28.8489 29.9744 0
lfingers 7.12502 0 0
lthumb -2.20583 59.9428 0
rclavicle 1.10717e-15 -8.00418e-15 0
rhumerus -32.8193 4.61832 -81.7003
rradius 32.8505 0 0
rwrist 3.83608 0 0
rhand -24.1438 -25.088 0
rfingers 7.12502 0 0
rthumb 2.33848 -55.0555 0
4
root -2.95786 16.8182 -36.2841 3.51811 -0.492362 -2.7035
lfemur -17.9012 -3.56432 -7.44691
ltibia 37.5615 0 0
lfoot -17.7393 6.63382 0
ltoes -25.4215 0 0
rfemur -19.0056 -0.0218552 14.6784
rtibia 40.4621 0 0
rfoot -23.1092 -2.52791 0
rtoes -20.135 0 0
lowerback 7.53431 2.56894 -2.02287
upperback -3.0456 3.31431 1.25873
thorax -7.62868 1.75725 1.99433
lowerneck -4.69775 -4.0316 -6.8477
upperneck 4.56744 -5.29114 6.51738
head 2.72883 -2.57505 3.16342
lclavicle 7.64033e-16 -7.48047e-15 0
lhumerus -26.9964 -5.31106 89.67
lradius 25.705 0 0
lwrist -30.648 0 0
lhand -28.8527 29.9671 0
lfingers 7.12502 0 0
lthumb -2.20953 59.9354 0
rclavicle 7.64033e-16 -7.48047e-15 0
rhumerus -32.8129 4.5805 -81.6906
rradius 32.7988 0 0
rwrist 3.83506 0 0
rhand -24.1448 -25.0844 0
rfingers 7.12502 0 0
rthumb 2.33752 -55.0522 0
5
root -2.95833 16.8146 -36.2869 3.44614 -0.515146 -2.68616
lfemur -17.8213 -3.50106 -7.46438
ltibia 37.5324 0 0
lfoot -17.7156 6.60288 0
ltoes -25.2511 0 0
rfemur -18.9628 -0.0592839 14.6656
rtibia 40.478 0 0
rfoot -23.0907 -2.44528 0
rtoes -19.9179 0 0
lowerback 7.66875 2.57286 -2.03663
upperback -3.01925 3.31495 1.25521
thorax -7.67892 1.75798 1.9939
lowerneck -4.70468 -4.02941 -6.84988
upperneck 4.53032 -5.28699 6.52922
head 2.71786 -2.57259 3.16793
lclavicle 4.58824e-16 -7.01623e-15 0
lhumerus -26.9776 -5.30741 89.6764
lradius 25.6978 0 0
lwrist -30.6547 0 0
lhand -28.8563 29.9604 0
lfingers 7.12502 0 0
lthumb -2.213 59.9287 0
rclavicle 4.58824e-16 -7.01623e-15 0
rhumerus -32.8076 4.54813 -81.6831
rradius 32.7546 0 0
rwrist 3.835 0 0
rhand -24.1489 -25.0791 0
rfingers 7.12502 0 0
rthumb 2.33361 -55.0473 0
6
root -2.95879 16.811 -36.2897 3.38295 -0.53567 -2.67121
lfemur -17.7484 -3.45253 -7.47843
ltibia 37.5016 0 0
lfoot -17.6917 6.58047 0
ltoes -25.114 0 0
rfemur -18.9231 -0.0878905 14.6551
rtibia 40.4868 0 0
rfoot -23.0726 -2.37563 0
rtoes -19.7366 0 0
lowerback 7.78724 2.57675 -2.04898
upperback -2.99557 3.31606 1.25213
thorax -7.72276 1.7589 1.99361
lowerneck -4.71225 -4.02762 -6.85203
upperneck 4.49636 -5.2834 6.54013
head 2.70808 -2.57042 3.17208
lclavicle 1.89447e-16 -6.60809e-15 0
lhumerus -26.9611 -5.30506 89.6819
lradius 25.6921 0 0
lwrist -30.6608 0 0
lhand -28.8597 29.9543 0
lfingers 7.12502 0 0
lthumb -2.21624 59.9226 0
rclavicle 1.89447e-16 -6.60809e-15 0
rhumerus -32.8032 4.52087 -81.6775
rradius 32.7174 0 0
rwrist 3.8358 0 0
rhand -24.1557 -25.0724 0
rfingers 7.12502 0 0
rthumb 2.32706 -55.0409 0
7
root -2.95926 16.8073 -36.2925 3.32802 -0.554047 -2.65848
lfemur -17.6821 -3.4175 -7.48934
ltibia 37.4693 0 0
lfoot -17.6677 6.56585 0
ltoes -25.0075 0 0
rfemur -18.8862 -0.108416 14.6466
rtibia 40.4892 0 0
rfoot -23.0547 -2.31802 0
rtoes -19.5885 0 0
lowerback 7.89073 2.58059 -2.06001
upperback -2.97442 3.3176 1.24947
thorax -7.76059 1.75999 1.99345
lowerneck -4.72035 -4.0262 -6.85414
upperneck 4.46542 -5.28034 6.55012
head 2.69941 -2.56853 3.17589
lclavicle -4.61944e-17 -6.2527e-15 0
lhumerus -26.9469 -5.30391 89.6866
lradius 25.6877 0 0
lwrist -30.6665 0 0
lhand -28.8628 29.9487 0
lfingers 7.12502 0 0
lthumb -2.21925 59.917 0
rclavicle -4.61944e-17 -6.2527e-15 0
rhumerus -32.7998 4.49834 -81.6738
rradius 32.6866 0 0
rwrist 3.83737 0 0
rhand -24.1649 -25.0644 0
rfingers 7.12502 0 0
rthumb 2.31818 -55.0333 0
